<?xml version="1.0" standalone="no"?><!-- Generator: Gravit.io --><svg xmlns="http://www.w3.org/2000/svg" xmlns:xlink="http://www.w3.org/1999/xlink" style="isolation:isolate" viewBox="610 358 20 20" width="18" height="18"><path d=" M 610 368 C 610 362.481 614.481 358 620 358 C 625.519 358 630 362.481 630 368 C 630 373.519 625.519 378 620 378 C 614.481 378 610 373.519 610 368 Z  M 621.478 364.834 L 621.478 364.834 L 619.789 363.145 L 626.122 361.878 L 624.855 368.211 L 623.166 366.522 L 623.166 366.522 L 618.522 371.166 L 618.522 371.166 L 618.522 371.166 L 620.211 372.855 L 613.878 374.122 L 615.145 367.789 L 616.834 369.478 L 621.478 364.834 L 621.478 364.834 Z " fill-rule="evenodd" fill="#ECE4B7"/></svg>