<?xml version="1.0" standalone="no"?><!-- Generator: Gravit.io --><svg xmlns="http://www.w3.org/2000/svg" xmlns:xlink="http://www.w3.org/1999/xlink" style="isolation:isolate" viewBox="608.5 319.25 48 46.5"><path d=" M 632.5 319.25 C 619.3 319.25 608.5 330.05 608.5 343.25 C 608.5 353.45 614.898 362.148 623.8 365.648 C 624.7 365.449 625.5 364.648 625.5 363.648 L 625.5 359.25 L 622.898 359.25 C 621 359.25 619.398 358.352 618.602 356.95 C 618.398 356.55 618.199 356.05 618 355.55 C 617.602 354.45 617.102 353.25 616.102 352.55 C 615.699 352.25 615.5 351.648 615.602 351.148 C 615.801 350.648 616.301 350.25 617.199 350.352 C 618.199 350.449 619.699 351.551 620.602 352.75 C 621.398 353.75 622 354.352 623.199 354.352 L 623.5 354.352 C 624.398 354.352 626.602 354.352 627 353.949 C 627.3 353.551 627.5 353.25 627.8 352.949 C 621.8 351.75 618.398 348.25 618.398 342.949 C 618.398 341.149 618.898 339.352 620 337.75 C 619.602 336.25 618.7 332.352 620.602 330.648 L 620.898 330.352 L 621.301 330.352 C 623.898 330.352 625.801 331.449 627 332.352 C 630.5 331.051 634.5 331.051 638 332.352 C 639.102 331.449 641 330.352 643.7 330.352 L 644.102 330.352 L 644.398 330.648 C 646.301 332.449 645.398 336.25 645 337.75 C 646 339.352 646.602 341.148 646.602 342.95 C 646.602 348.25 643.199 351.75 637.301 352.95 C 638.801 354.55 639.601 356.95 639.601 358.852 L 639.601 363.75 C 639.601 364.75 640.301 365.55 641.301 365.75 C 650.1 362.148 656.5 353.45 656.5 343.25 C 656.5 330.05 645.7 319.25 632.5 319.25 Z " fill="rgb(118,255,3)"/></svg>